<?xml version="1.0" encoding="UTF-8"?>
<svg version="1.1" xmlns="http://www.w3.org/2000/svg" width="250" height="69">
<path d="M0 0 C6.20818789 5.1841569 11.47728975 10.63265974 12.59716797 18.93505859 C12.7773569 21.05390078 12.86493815 23.15129714 12.90234375 25.27734375 C12.9173291 25.95095947 12.93231445 26.6245752 12.94775391 27.31860352 C12.81298598 33.72959311 10.10404614 37.30416932 5.65234375 41.65234375 C-4.56685934 49.63770094 -16.88305425 50.38194188 -29.35180664 50.34301758 C-31.45837594 50.33986512 -33.56352595 50.36335875 -35.66992188 50.38867188 C-49.32253845 50.45404433 -62.02287755 48.47369048 -72.16015625 38.58984375 C-76.26610365 31.57551695 -76.17362231 24.82368537 -74.66015625 17.02734375 C-71.40340353 7.27112331 -64.98112396 0.56305794 -56.03515625 -4.28515625 C-37.76254358 -12.76309411 -16.4722703 -12.21511968 0 0 Z M-60.66015625 13.02734375 C-63.27540954 17.08549541 -64.36140373 20.21878962 -63.66015625 25.02734375 C-61.37290249 29.34771196 -59.18930491 32.08628004 -54.66015625 34.02734375 C-50.69553751 34.61781888 -49.01301495 34.22107009 -45.47265625 32.27734375 C-42.99155299 30.29246115 -41.24609066 28.75867523 -39.66015625 26.02734375 C-39.66015625 25.03734375 -39.66015625 24.04734375 -39.66015625 23.02734375 C-34.05015625 23.02734375 -28.44015625 23.02734375 -22.66015625 23.02734375 C-22.16515625 25.50234375 -22.16515625 25.50234375 -21.66015625 28.02734375 C-18.95310207 31.74954325 -16.6929891 33.34353186 -12.22265625 34.08984375 C-8.73971407 34.29267732 -7.56782006 33.98288559 -4.28515625 32.40234375 C-0.72502749 29.18127487 1.06364197 26.88184142 1.77734375 22.08984375 C1.07870424 17.1993672 -1.17929197 14.22804452 -4.97265625 11.15234375 C-8.49906817 9.67617132 -10.86404625 9.5611548 -14.66015625 10.02734375 C-18.51423382 12.0634602 -21.28834506 13.77472907 -22.66015625 18.02734375 C-22.66015625 19.01734375 -22.66015625 20.00734375 -22.66015625 21.02734375 C-28.27015625 21.02734375 -33.88015625 21.02734375 -39.66015625 21.02734375 C-40.32015625 19.04734375 -40.98015625 17.06734375 -41.66015625 15.02734375 C-44.11068431 12.34343206 -46.00888528 10.36987745 -49.65625 9.61328125 C-54.12328379 9.42750669 -57.27627606 10.12687501 -60.66015625 13.02734375 Z " fill="#53A5ED" transform="translate(79.66015625,13.97265625)"/>
<path d="M0 0 C2.96591737 1.31349476 4.82721679 2.6385512 6.91015625 5.1171875 C7.68262695 6.02791016 7.68262695 6.02791016 8.47070312 6.95703125 C8.99599609 7.58996094 9.52128906 8.22289062 10.0625 8.875 C10.59166016 9.50019531 11.12082031 10.12539063 11.66601562 10.76953125 C14.20356491 13.78147808 16.68478746 16.81157581 19 20 C24.12670184 14.43154154 29.03619653 8.83914051 33.4921875 2.71484375 C35 1 35 1 38 0 C38 4.84474352 37.02835691 5.61160044 33.9375 9.1875 C33.12152344 10.16847656 32.30554688 11.14945313 31.46484375 12.16015625 C29.988723 13.86085321 28.47127911 15.52872089 26.87890625 17.12109375 C20.36874976 24.06435836 20.92734965 31.96022019 21 41 C19.68 40.67 18.36 40.34 17 40 C17.04833984 38.33324219 17.04833984 38.33324219 17.09765625 36.6328125 C17.17825761 26.19485469 17.17825761 26.19485469 11.875 17.5 C10.26172666 15.98739492 8.63683498 14.48707641 7 13 C5.60743893 11.40777953 4.25004547 9.78379979 2.9375 8.125 C2.08478516 7.07699219 2.08478516 7.07699219 1.21484375 6.0078125 C0 4 0 4 0 0 Z " fill="#4D99D8" transform="translate(207,13)"/>
<path d="M0 0 C0 0.66 0 1.32 0 2 C-1.12019531 1.97679687 -2.24039063 1.95359375 -3.39453125 1.9296875 C-4.86718084 1.91092763 -6.33983763 1.89272766 -7.8125 1.875 C-8.91948242 1.84986328 -8.91948242 1.84986328 -10.04882812 1.82421875 C-13.91246426 1.78925372 -15.70903668 1.80602445 -19 4 C-19.36460453 6.66653905 -19.36460453 6.66653905 -19.1875 9.625 C-19.16042969 10.62789062 -19.13335937 11.63078125 -19.10546875 12.6640625 C-19.07066406 13.43492188 -19.03585938 14.20578125 -19 15 C-15.13276369 16.26582219 -11.26848738 16.1118765 -7.25 16.0625 C-6.55261719 16.05798828 -5.85523438 16.05347656 -5.13671875 16.04882812 C-3.42444197 16.0371002 -1.71220967 16.01916653 0 16 C0 14.02 0 12.04 0 10 C-3.3 10 -6.6 10 -10 10 C-10 9.34 -10 8.68 -10 8 C-6.04 8 -2.08 8 2 8 C2 10.97 2 13.94 2 17 C-1.94782133 18.84869991 -5.15309242 19.29726551 -9.5 19.3125 C-11.15515625 19.33763672 -11.15515625 19.33763672 -12.84375 19.36328125 C-16.38440813 18.955755 -18.20132706 18.18276781 -21 16 C-23.50640589 12.37054577 -23.20140415 9.3442957 -22.59765625 5.125 C-22 3 -22 3 -19.875 0.5 C-13.06715141 -3.051921 -7.12480286 -1.73460995 0 0 Z " fill="#000000" transform="translate(200,14)"/>
<path d="M0 0 C2.413125 -0.04125 4.82625 -0.0825 7.3125 -0.125 C8.06829346 -0.14320801 8.82408691 -0.16141602 9.6027832 -0.18017578 C13.31447871 -0.21099473 14.83533664 -0.10977558 18 2 C18.1875 4.4375 18.1875 4.4375 18 7 C18 7.99 18 8.98 18 10 C18.33 10.33 18.66 10.66 19 11 C19.3125 13.375 19.3125 13.375 19 16 C16.48721232 18.70460353 15.05403171 18.99568896 11.328125 19.29296875 C9.96840181 19.27596307 8.60892078 19.23720589 7.25 19.1875 C4.8575 19.125625 2.465 19.06375 0 19 C0 12.73 0 6.46 0 0 Z M2 2 C2 3.98 2 5.96 2 8 C3.95825873 8.02694851 5.91662226 8.04637218 7.875 8.0625 C9.51082031 8.07990234 9.51082031 8.07990234 11.1796875 8.09765625 C13.95177546 8.19744303 13.95177546 8.19744303 16 7 C15.50243908 4.24358584 15.50243908 4.24358584 14 2 C11.98035801 1.92755947 9.95832876 1.91622812 7.9375 1.9375 C6.83277344 1.94652344 5.72804688 1.95554688 4.58984375 1.96484375 C3.73519531 1.97644531 2.88054687 1.98804688 2 2 Z M2 10 C2 12.31 2 14.62 2 17 C4.12493141 17.02693575 6.24995912 17.04636628 8.375 17.0625 C10.15003906 17.07990234 10.15003906 17.07990234 11.9609375 17.09765625 C14.91921521 17.21466593 14.91921521 17.21466593 17 16 C16.65555119 13.52733235 16.65555119 13.52733235 16 11 C13.23547967 9.61773984 10.9538637 9.90474613 7.875 9.9375 C6.77929688 9.94652344 5.68359375 9.95554687 4.5546875 9.96484375 C3.29011719 9.98224609 3.29011719 9.98224609 2 10 Z " fill="#000000" transform="translate(100,35)"/>
<path d="M0 0 C1.24652344 -0.02578125 2.49304688 -0.0515625 3.77734375 -0.078125 C7.0625 0.25 7.0625 0.25 9.00390625 1.765625 C9.35324219 2.25546875 9.70257813 2.7453125 10.0625 3.25 C9.34964844 3.15460937 8.63679688 3.05921875 7.90234375 2.9609375 C2.08714305 2.28784563 -2.52624366 1.83220461 -7.9375 4.25 C-10.26106113 6.86400627 -9.9325293 8.34610027 -9.75 11.875 C-9.27825097 15.51330048 -9.27825097 15.51330048 -5.9375 17.25 C-3.17094676 17.39245897 -0.51096694 17.43769445 2.25 17.375 C3.37438477 17.36146484 3.37438477 17.36146484 4.52148438 17.34765625 C6.36862654 17.32412578 8.21560412 17.28825561 10.0625 17.25 C10.0625 15.27 10.0625 13.29 10.0625 11.25 C6.7625 11.25 3.4625 11.25 0.0625 11.25 C0.0625 10.59 0.0625 9.93 0.0625 9.25 C1.87492052 9.22312721 3.68745233 9.20366285 5.5 9.1875 C6.50933594 9.17589844 7.51867187 9.16429687 8.55859375 9.15234375 C11.0625 9.25 11.0625 9.25 12.0625 10.25 C12.20365161 12.92058851 12.10497107 15.57432238 12.0625 18.25 C7.97645453 20.18468062 4.56734099 20.57645645 0.0625 20.625 C-1.13375 20.65335938 -2.33 20.68171875 -3.5625 20.7109375 C-7.52571628 20.16966491 -9.12452559 19.03194896 -11.9375 16.25 C-13.53836627 13.04826746 -13.43667089 9.72422941 -12.9375 6.25 C-9.23118699 0.44344296 -6.66915067 0.0825901 0 0 Z " fill="#000000" transform="translate(161.9375,12.75)"/>
<path d="M0 0 C4.33125 -0.061875 4.33125 -0.061875 8.75 -0.125 C10.10496582 -0.15231201 10.10496582 -0.15231201 11.48730469 -0.18017578 C12.20821289 -0.1851709 12.92912109 -0.19016602 13.671875 -0.1953125 C14.4050293 -0.20578613 15.13818359 -0.21625977 15.89355469 -0.22705078 C18.33295899 0.03588918 19.90871583 0.73517416 22 2 C24.54575791 5.43677318 24.43672876 8.85107675 24 13 C22.20437595 15.75329021 20.94745078 17.52627461 18 19 C16.62451844 19.08308638 15.24514204 19.10736016 13.8671875 19.09765625 C13.14128418 19.09515869 12.41538086 19.09266113 11.66748047 19.09008789 C10.74596191 19.08098389 9.82444336 19.07187988 8.875 19.0625 C5.94625 19.041875 3.0175 19.02125 0 19 C0 12.73 0 6.46 0 0 Z M2 2 C2 6.95 2 11.9 2 17 C4.371875 17.103125 6.74375 17.20625 9.1875 17.3125 C10.29387817 17.38078003 10.29387817 17.38078003 11.42260742 17.45043945 C15.29623593 17.53152148 16.89039371 17.08421321 19.984375 14.70703125 C22.35117632 12.07775869 22.35117632 12.07775869 22.0625 8.375 C20.86635069 4.5754669 20.42716914 3.84369519 17 2 C14.30796435 1.78520992 11.92275886 1.71473724 9.25 1.8125 C5.66125 1.9053125 5.66125 1.9053125 2 2 Z " fill="#000000" transform="translate(178,35)"/>
<path d="M0 0 C4.33125 -0.061875 4.33125 -0.061875 8.75 -0.125 C10.10496582 -0.15231201 10.10496582 -0.15231201 11.48730469 -0.18017578 C12.20821289 -0.1851709 12.92912109 -0.19016602 13.671875 -0.1953125 C14.4050293 -0.20578613 15.13818359 -0.21625977 15.89355469 -0.22705078 C18.33295899 0.03588918 19.90871583 0.73517416 22 2 C24.54575791 5.43677318 24.43672876 8.85107675 24 13 C22.20437595 15.75329021 20.94745078 17.52627461 18 19 C16.62451844 19.08308638 15.24514204 19.10736016 13.8671875 19.09765625 C13.14128418 19.09515869 12.41538086 19.09266113 11.66748047 19.09008789 C10.74596191 19.08098389 9.82444336 19.07187988 8.875 19.0625 C5.94625 19.041875 3.0175 19.02125 0 19 C0 12.73 0 6.46 0 0 Z M2 2 C2 6.95 2 11.9 2 17 C4.371875 17.103125 6.74375 17.20625 9.1875 17.3125 C10.29387817 17.38078003 10.29387817 17.38078003 11.42260742 17.45043945 C15.29623593 17.53152148 16.89039371 17.08421321 19.984375 14.70703125 C22.35117632 12.07775869 22.35117632 12.07775869 22.0625 8.375 C20.86635069 4.5754669 20.42716914 3.84369519 17 2 C14.30796435 1.78520992 11.92275886 1.71473724 9.25 1.8125 C5.66125 1.9053125 5.66125 1.9053125 2 2 Z " fill="#000000" transform="translate(150,35)"/>
<path d="M0 0 C5.94 0 11.88 0 18 0 C18 0.66 18 1.32 18 2 C12.72 2 7.44 2 2 2 C2 4.31 2 6.62 2 9 C7.28 9 12.56 9 18 9 C17.67 9.66 17.34 10.32 17 11 C12.05 11 7.1 11 2 11 C2 13.31 2 15.62 2 18 C7.28 18 12.56 18 18 18 C18 18.66 18 19.32 18 20 C12.06 20 6.12 20 0 20 C0 13.4 0 6.8 0 0 Z " fill="#000000" transform="translate(100,13)"/>
<path d="M0 0 C4.03857809 2.01928905 6.88503647 4.44923142 10.125 7.5 C10.66253906 7.99886719 11.20007813 8.49773438 11.75390625 9.01171875 C13.86763446 10.97785496 15.95863889 12.95863889 18 15 C18.33 10.05 18.66 5.1 19 0 C19.66 0 20.32 0 21 0 C21 6.6 21 13.2 21 20 C17.76847772 18.38423886 16.06013713 17.33457395 13.546875 14.9609375 C12.928125 14.38085938 12.309375 13.80078125 11.671875 13.203125 C11.03765625 12.59984375 10.4034375 11.9965625 9.75 11.375 C9.1003125 10.76398437 8.450625 10.15296875 7.78125 9.5234375 C6.18359555 8.01976272 4.59126973 6.51042982 3 5 C2.67 9.95 2.34 14.9 2 20 C1.34 20 0.68 20 0 20 C0 13.4 0 6.8 0 0 Z " fill="#000000" transform="translate(123,13)"/>
<path d="M0 0 C0.66 0.33 1.32 0.66 2 1 C2.31341426 3.55757859 2.51228239 5.99643821 2.625 8.5625 C2.74875 11.016875 2.8725 13.47125 3 16 C7.95 16 12.9 16 18 16 C18.144375 13.73125 18.28875 11.4625 18.4375 9.125 C18.875 2.25 18.875 2.25 20 0 C20.66 0 21.32 0 22 0 C22.08160748 1.89510699 22.13946459 3.79124504 22.1875 5.6875 C22.23970703 7.27111328 22.23970703 7.27111328 22.29296875 8.88671875 C21.96063055 12.41836599 21.11678496 14.18255429 19 17 C15.58078453 19.27947698 14.09689823 19.32513105 10.0625 19.375 C9.02222656 19.40335938 7.98195312 19.43171875 6.91015625 19.4609375 C3.31573431 18.89161966 2.20653125 17.83623738 0 15 C-1.03876383 11.88370851 -1.13361625 9.6405571 -1.125 6.375 C-1.12757812 5.39273438 -1.13015625 4.41046875 -1.1328125 3.3984375 C-1 1 -1 1 0 0 Z " fill="#000000" transform="translate(124,35)"/>
<path d="M0 0 C2.94791063 1.31066691 4.84268561 2.64244955 6.9453125 5.08203125 C7.72455078 5.98598633 7.72455078 5.98598633 8.51953125 6.90820312 C9.04933594 7.53662109 9.57914063 8.16503906 10.125 8.8125 C10.93130859 9.73772461 10.93130859 9.73772461 11.75390625 10.68164062 C14.55221019 13.96493739 16.70599495 16.80646512 18 21 C14 21 14 21 12.47607422 19.76245117 C12.0070166 19.19502197 11.53795898 18.62759277 11.0546875 18.04296875 C10.53519531 17.42486328 10.01570312 16.80675781 9.48046875 16.16992188 C8.95066406 15.51572266 8.42085937 14.86152344 7.875 14.1875 C7.33746094 13.54490234 6.79992187 12.90230469 6.24609375 12.24023438 C0 4.72467269 0 4.72467269 0 0 Z " fill="#7AB6E6" transform="translate(207,13)"/>
<path d="M0 0 C0 4.62 0 9.24 0 14 C-1.32 13.67 -2.64 13.34 -4 13 C-4.08121924 11.39667209 -4.13929134 9.79215974 -4.1875 8.1875 C-4.22230469 7.29417969 -4.25710937 6.40085937 -4.29296875 5.48046875 C-4 3 -4 3 -2.55078125 1.17578125 C-1 0 -1 0 0 0 Z " fill="#247DC9" transform="translate(228,40)"/>
<path d="M0 0 C0.66 0.33 1.32 0.66 2 1 C1.60167969 1.51949219 1.20335937 2.03898437 0.79296875 2.57421875 C-1.53345145 5.63648962 -3.7796773 8.6301726 -5.75 11.9375 C-7 14 -7 14 -9 15 C-9.3125 12.3125 -9.3125 12.3125 -9 9 C-6.625 6.125 -6.625 6.125 -4 4 C-3.34 4 -2.68 4 -2 4 C-1.34 2.68 -0.68 1.36 0 0 Z " fill="#4191D4" transform="translate(233,28)"/>
<path d="M0 0 C0 4.17561407 -1.83352478 5.53957787 -4.5 8.6875 C-5.3353125 9.68136719 -6.170625 10.67523438 -7.03125 11.69921875 C-8.00578125 12.83810547 -8.00578125 12.83810547 -9 14 C-9.33 13.01 -9.66 12.02 -10 11 C-9.52949219 10.54109375 -9.05898437 10.0821875 -8.57421875 9.609375 C-3.96631602 5.08450705 -3.96631602 5.08450705 0 0 Z " fill="#3F91D4" transform="translate(245,14)"/>
</svg>
